<svg xmlns="http://www.w3.org/2000/svg" viewBox="0 0 100 100" fill-rule="evenodd"><g class="t-group-origins"><path d="M85.004 25.102H68.53c2.131-3.23 2.462-6.664.66-8.993-.938-1.215-2.355-1.976-4.098-2.198-2.913-.374-6.436.796-9.433 3.119-1.681 1.298-3.022 2.82-3.961 4.406-.944-1.595-2.294-3.123-3.953-4.404-4.995-3.867-10.943-4.273-13.545-.922-1.797 2.33-1.465 5.764.663 8.993H18.39a1.5 1.5 0 0 0-1.5 1.5v15.781a1.5 1.5 0 0 0 1.5 1.5h3.463v39.412a1.5 1.5 0 0 0 1.5 1.5h56.693a1.5 1.5 0 0 0 1.5-1.5V43.883h3.458a1.5 1.5 0 0 0 1.5-1.5V26.602a1.5 1.5 0 0 0-1.5-1.5zm-27.509-5.699c2.35-1.821 5.122-2.785 7.216-2.516.949.121 1.656.476 2.104 1.057 1.222 1.58.295 4.586-2.123 7.159H53.38c.48-1.915 1.987-4.057 4.115-5.7zm-20.922-1.458c1.491-1.92 5.854-1.237 9.336 1.459 2.123 1.641 3.632 3.773 4.113 5.698H38.697c-2.413-2.573-3.339-5.58-2.124-7.157zM19.89 28.102h30.309v12.781H19.89V28.102zm4.963 15.781h25.346v37.912H24.853V43.883zm53.693 37.912H53.199V43.883h25.347v37.912zm4.958-40.912H53.199V28.102h30.305v12.781z" stroke-width="0.5" stroke="black" fill="black" stroke-width-old="0"></path></g></svg>
