<svg xmlns="http://www.w3.org/2000/svg" viewBox="0 0 100 100" fill-rule="evenodd"><g class="t-group-origins"><path d="M93.486 22.069 77.931 6.514a1.5 1.5 0 0 0-2.121 0L48.135 34.188 31.428 17.75c-.013-.013-.03-.022-.044-.034a1.49 1.49 0 0 0-.177-.137c-.03-.02-.058-.042-.089-.06a1.556 1.556 0 0 0-.235-.105c-.021-.007-.039-.02-.06-.027l-22.628-7.07a1.498 1.498 0 0 0-1.879 1.879l7.071 22.627c.043.137.109.263.188.381.025.038.055.069.083.104.037.046.067.096.109.137l16.69 16.421L6.514 75.81a1.5 1.5 0 0 0 0 2.121L22.07 93.488a1.5 1.5 0 0 0 2.122 0l24.19-24.19 19.572 19.021c.25.241.564.358.885.393a12.152 12.152 0 0 0 8.312 3.27c3.272 0 6.349-1.274 8.662-3.588 4.713-4.713 4.766-12.338.177-17.128a1.496 1.496 0 0 0-.393-.662L65.968 51.711l27.519-27.52a1.501 1.501 0 0 0-.001-2.122zm-64.965-2.257-1.121 3.81-5.226 1.537a1.5 1.5 0 0 0-1.016 1.016L19.622 31.4l-3.811 1.121-5.777-18.486 18.487 5.777zM23.13 90.306 9.695 76.87l5.652-5.652 6.717 6.717c.293.293.677.439 1.061.439s.768-.146 1.061-.439a1.5 1.5 0 0 0 0-2.121l-6.717-6.717 5.504-5.504 6.717 6.717c.293.293.677.439 1.061.439s.768-.146 1.061-.439a1.5 1.5 0 0 0 0-2.121l-6.717-6.717 7.509-7.509 13.627 13.244L23.13 90.306zm60.559-4.034c-3.357 3.355-8.668 3.584-12.296.695l12.992-12.992c2.889 3.629 2.66 8.942-.696 12.297zm-14.706-1.136L33.541 50.691 17.689 35.095l3.565-1.048a1.5 1.5 0 0 0 1.016-1.016l1.537-5.225 5.226-1.537a1.5 1.5 0 0 0 1.016-1.016l1.062-3.609L62.757 52.78l19.659 18.924-13.433 13.432zm-5.166-35.517L50.273 36.292l7.699-7.699 6.717 6.717c.293.293.677.439 1.061.439s.768-.146 1.061-.439a1.5 1.5 0 0 0 0-2.121l-6.717-6.717 6.254-6.254 6.717 6.717c.293.293.677.439 1.061.439s.768-.146 1.061-.439a1.5 1.5 0 0 0 0-2.121l-6.717-6.717 8.402-8.402L90.305 23.13 63.817 49.619z" stroke-width="0.5" stroke="black" fill="black" stroke-width-old="0"></path></g></svg>
