<svg xmlns="http://www.w3.org/2000/svg" viewBox="0 0 100 100" fill-rule="evenodd"><g class="t-group-origins"><path d="M89.55 27.53 85 16a1.49 1.49 0 0 0-2.31-1l-12.24 4.52a1.5 1.5 0 0 0 1 2.81l9.14-3.4L65.33 52.5l-7.79-13.26a1.5 1.5 0 0 0-2.65.12L43.68 63.28 34.66 46a1.43 1.43 0 0 0-1.37-.81A1.5 1.5 0 0 0 32 46L18 76.61V16.5a1.5 1.5 0 0 0-3 0v67.1a1.49 1.49 0 0 0 0 .17v.28l.07.14.07.12.09.12.09.11.11.1.11.09.15.09.09.05.23.08h67.35a1.5 1.5 0 0 0 0-3H18.83l14.59-31.87 9 17.28a1.5 1.5 0 0 0 2.69-.06L56.4 43.22l7.81 13.29a1.5 1.5 0 0 0 2.66-.14L83.4 20.11l3.36 8.52a1.5 1.5 0 0 0 2.79-1.1Z" stroke-width="0.5" stroke="black" fill="black" stroke-width-old="0"></path></g></svg>
