<svg xmlns="http://www.w3.org/2000/svg" viewBox="0 0 100 100" fill-rule="evenodd"><g class="t-group-origins"><path d="M55.201 66.802a1.499 1.499 0 0 0-2.064-.488l-9.772 6.029c-3.167 1.956-7.79.93-9.697-2.15L20.384 48.66a6.63 6.63 0 0 1-.815-5.047 6.64 6.64 0 0 1 2.993-4.147l10.143-6.263a1.5 1.5 0 0 0 .488-2.064l-8.408-13.624a1.499 1.499 0 0 0-2.064-.489L12.584 23.28c-11.274 6.958-10.873 25.237.978 44.452C19 76.544 25.841 83.551 32.826 87.461c4.095 2.293 8.127 3.444 11.882 3.444 3.143 0 6.091-.808 8.715-2.428l9.699-5.988a1.5 1.5 0 0 0 .488-2.064l-8.409-13.623zm-3.353 19.124c-6.14 3.792-12.937 1.504-17.556-1.082-6.547-3.665-13.002-10.302-18.176-18.687C5.193 48.446 4.388 31.864 14.16 25.833l8.86-5.467 6.833 11.071-8.867 5.475a9.615 9.615 0 0 0-4.335 6.009 9.605 9.605 0 0 0 1.182 7.313l13.285 21.534c2.781 4.495 9.242 5.956 13.824 3.126l8.495-5.241 6.834 11.071-8.423 5.202zm38.16-76.832H49.332c-3.087 0-5.599 2.515-5.599 5.607v24.446a5.607 5.607 0 0 0 5.599 5.602h4.78v9.947a1.5 1.5 0 0 0 2.508 1.11l12.174-11.058h21.213a5.607 5.607 0 0 0 5.599-5.602V14.7c.001-3.09-2.511-5.606-5.598-5.606zm2.599 30.054a2.603 2.603 0 0 1-2.599 2.602H68.215c-.373 0-.732.139-1.008.39l-10.095 9.169V43.25a1.5 1.5 0 0 0-1.5-1.5h-6.28a2.603 2.603 0 0 1-2.599-2.602V14.702a2.606 2.606 0 0 1 2.599-2.607h40.676a2.606 2.606 0 0 1 2.599 2.607v24.446z" stroke-width="0.5" stroke="black" fill="black" stroke-width-old="0"></path><path d="M57.883 21.78a3.806 3.806 0 0 0-2.714 1.132 3.775 3.775 0 0 0-1.106 2.697c.01 2.098 1.731 3.802 3.843 3.802h.009c2.109-.011 3.82-1.729 3.815-3.829a3.769 3.769 0 0 0-1.124-2.686c-.728-.724-1.712-1.147-2.723-1.116zm.021 4.63a.82.82 0 0 1-.84-.815.797.797 0 0 1 .234-.569c.158-.159.349-.231.6-.246.226 0 .437.086.596.244a.797.797 0 0 1 .238.564.83.83 0 0 1-.828.822zm11.29-4.63a3.813 3.813 0 0 0-2.718 1.133 3.771 3.771 0 0 0-1.105 2.695c.009 2.098 1.73 3.802 3.843 3.802h.009c2.113-.011 3.825-1.73 3.815-3.833a3.773 3.773 0 0 0-1.124-2.683 3.88 3.88 0 0 0-2.72-1.114zm.843 3.811a.826.826 0 0 1-.826.819h-.001a.83.83 0 0 1-.839-.815.793.793 0 0 1 .234-.568c.158-.159.419-.241.604-.247.224 0 .433.086.591.243a.794.794 0 0 1 .238.565l-.001.003zm10.464-3.811a3.816 3.816 0 0 0-2.718 1.132 3.78 3.78 0 0 0-1.106 2.696c.01 2.098 1.731 3.802 3.844 3.802h.009c2.111-.011 3.822-1.729 3.815-3.829a3.774 3.774 0 0 0-1.125-2.687c-.728-.723-1.664-1.106-2.719-1.114zm.843 3.811a.825.825 0 0 1-.826.819h-.002a.83.83 0 0 1-.839-.815.801.801 0 0 1 .234-.569c.158-.16.331-.218.604-.247a.83.83 0 0 1 .591.243.794.794 0 0 1 .238.565v.004z" stroke-width="0.5" stroke="black" fill="black" stroke-width-old="0"></path></g></svg>
