<svg xmlns="http://www.w3.org/2000/svg" viewBox="0 0 100 100" fill-rule="evenodd"><g class="t-group-origins"><path d="M49.936 52.438c-12.864 0-23.33 10.466-23.33 23.329v1.456h46.659v-1.456c0-12.863-10.466-23.329-23.329-23.329zM29.568 74.312c.749-10.582 9.598-18.963 20.367-18.963s19.618 8.38 20.367 18.963H29.568zm19.984-24.26c7.521 0 13.639-6.119 13.639-13.639s-6.119-13.637-13.639-13.637c-7.519 0-13.636 6.118-13.636 13.637.001 7.52 6.118 13.639 13.636 13.639zm0-24.365c5.915 0 10.728 4.812 10.728 10.726 0 5.915-4.813 10.728-10.728 10.728-5.914 0-10.725-4.813-10.725-10.728.001-5.914 4.811-10.726 10.725-10.726zM18.744 60.962c2.642 0 5.237.705 7.505 2.039l1.476-2.509a17.727 17.727 0 0 0-8.981-2.441c-9.769 0-17.716 7.947-17.716 17.717v1.456h21.677v-2.911H4.01c.733-7.485 7.062-13.351 14.734-13.351zm-.283-5.738c5.797 0 10.513-4.715 10.513-10.511 0-5.797-4.716-10.513-10.513-10.513-5.795 0-10.509 4.716-10.509 10.513-.001 5.796 4.714 10.511 10.509 10.511zm0-18.113c4.192 0 7.602 3.41 7.602 7.602 0 4.191-3.41 7.6-7.602 7.6-4.19 0-7.598-3.409-7.598-7.6-.001-4.192 3.408-7.602 7.598-7.602zm62.795 20.94c-3.16 0-6.266.844-8.981 2.441l1.475 2.509a14.812 14.812 0 0 1 7.505-2.039c7.673 0 14.001 5.867 14.734 13.35H77.298v2.911h21.673v-1.456c.001-9.769-7.946-17.716-17.715-17.716zm.284-2.827c5.797 0 10.513-4.715 10.513-10.511 0-5.797-4.716-10.513-10.513-10.513-5.795 0-10.509 4.716-10.509 10.513 0 5.796 4.714 10.511 10.509 10.511zm0-18.113c4.192 0 7.602 3.41 7.602 7.602 0 4.191-3.41 7.6-7.602 7.6-4.19 0-7.598-3.409-7.598-7.6 0-4.192 3.408-7.602 7.598-7.602z" stroke-width="0.5" stroke="black" fill="black" stroke-width-old="0"></path></g></svg>
